<?xml version="1.0" standalone="yes"?>
<svg width="1280" height="537">
<path style="fill:#ffffff; stroke:none;" d="M0 0L0 323L1 323C2.61619 285.455 26.6792 249.723 47 220L23 216C37.4495 181.294 67.291 149.889 98 129C88.2722 148.035 89.4825 181.889 113 191C104.477 170.22 98.0087 129.53 132 128.039C141.746 127.612 149.177 131.794 158 135C153.224 121.977 140.656 113.115 127 112L127 111C160.046 98.1794 191.888 86 228 86C237.922 86 249.552 84.3576 259 87.9545C272.482 93.0873 280.634 105.993 292 114L286 91C308.164 97.2432 342.752 105.316 356.4 126.015C359.735 131.072 359.764 139.194 361.427 145C364.092 154.296 368.511 163.007 372 172C354.873 155.608 331.271 134.704 308 128C306.854 132.653 305.965 147.239 299.867 148.245C295.938 148.892 290.128 143.038 287 141.053C276.946 134.672 265.577 125.905 254 122.637C247.485 120.799 239.372 123.574 233 125.13C213.982 129.772 198.446 138.851 182 149L182 151L192 160C179.628 162.13 163.369 172.486 158 184L176 186C176.394 233.619 234.108 224.687 265 226.039C273.143 226.396 281.059 228.362 289 230C282.787 219.252 266.908 202.123 255 197.724C244.936 194.006 233.391 197.064 223 195.711C211.763 194.247 203.155 188.25 193 184C200.613 173.284 221.55 161.136 235 165.697C243.759 168.667 256.187 178.876 265 179.083C271.68 179.239 279.65 171.991 287 171C283.535 176.62 278.267 182.848 279.268 189.985C280.326 197.536 292.842 205.818 297.999 211C301.881 214.901 306.578 222.952 312.001 224.593C317.206 226.169 328.302 221.201 334 220.425C346.327 218.747 359.46 220.556 371 225L341.21 197.829L324 174C330.965 175.905 338.266 183.389 345 183.981C351.002 184.508 355.348 175.057 361.91 177.356C371.442 180.697 372.142 193.797 365 199L382 217L383 205C395.174 215.062 403.285 234.074 410.247 248C437.425 302.363 438.599 360.841 420 418L402 399C399.006 403.377 399.208 409.841 398.196 415C396.268 424.829 393.801 434.646 390.189 444C375.979 480.8 348.856 515.595 314 535L307 505C281.178 517.216 256.868 534.714 227 536L227 537L1280 537L1280 0L278 0L281 53L317 19C309.036 38.4119 302.176 59.7648 302 81C285.277 79.6341 268.93 74.2489 252 73.0895C205.795 69.9254 154.775 79.6568 115 104C109.331 83.2318 98.9976 61.4124 85 45L127 69L119 17L159 43.6697L178 55L197 0L0 0z"/>
<path style="fill:#3d195b; stroke:none;" d="M197 0C189.583 15.859 179.532 38.5614 178 56L120 18L128 71C117.5 60.9576 99.5934 47.6014 85 45C96.2616 62.7295 111.789 82.5641 115 104C156.481 82.5229 201.693 68.8499 249 72.0895C266.57 73.2927 283.589 79.5779 301 81L317 19C302.321 25.2151 291.185 41.3332 281 53L278 0L263.961 13L229 49L210.424 19L197 0z"/>
<path style="fill:#ffffff; stroke:none;" d="M198 0L229 49L245.039 34L276 0L198 0z"/>
<path style="fill:#08030d; stroke:none;" d="M119 17L119 21L120 21L121 17L119 17z"/>
<path style="fill:#000000; stroke:none;" d="M122.667 19.3333L123.333 19.6667L122.667 19.3333M125.667 21.3333L126.333 21.6667L125.667 21.3333z"/>
<path style="fill:#020004; stroke:none;" d="M120 22L120 27L121 27L120 22z"/>
<path style="fill:#010001; stroke:none;" d="M313.333 26.6667L313.667 27.3333L313.333 26.6667z"/>
<path style="fill:#0a0410; stroke:none;" d="M312.333 28.6667L312.667 29.3333L312.333 28.6667z"/>
<path style="fill:#050209; stroke:none;" d="M121 31L121 34L122 34L121 31z"/>
<path style="fill:#040106; stroke:none;" d="M311.333 31.6667L311.667 32.3333L311.333 31.6667z"/>
<path style="fill:#220d33; stroke:none;" d="M245 33L241 39L245 33z"/>
<path style="fill:#030105; stroke:none;" d="M310.333 34.6667L310.667 35.3333L310.333 34.6667z"/>
<path style="fill:#09030e; stroke:none;" d="M122 37L122 40L123 40L122 37z"/>
<path style="fill:#07020b; stroke:none;" d="M309.333 37.6667L309.667 38.3333L309.333 37.6667z"/>
<path style="fill:#0b0411; stroke:none;" d="M308 40L308 43L309 43L308 40z"/>
<path style="fill:#0c0413; stroke:none;" d="M123 41L123 46L124 46L123 41z"/>
<path style="fill:#000000; stroke:none;" d="M156.667 42.3333L157.333 42.6667L156.667 42.3333M307 43L307 47L308 47L307 43M159.667 44.3333L160.333 44.6667L159.667 44.3333M162.667 46.3333L163.333 46.6667L162.667 46.3333M306 47L306 51L307 51L306 47z"/>
<path style="fill:#050108; stroke:none;" d="M124.333 50.6667L124.667 51.3333L124.333 50.6667z"/>
<path style="fill:#000000; stroke:none;" d="M90.3333 51.6667L90.6667 52.3333L90.3333 51.6667z"/>
<path style="fill:#010002; stroke:none;" d="M100.667 52.3333L101.333 52.6667L100.667 52.3333z"/>
<path style="fill:#000001; stroke:none;" d="M176.667 55.3333L177.333 55.6667L176.667 55.3333z"/>
<path style="fill:#040107; stroke:none;" d="M125.333 56.6667L125.667 57.3333L125.333 56.6667z"/>
<path style="fill:#07020b; stroke:none;" d="M304 56L304 61L305 61L304 56z"/>
<path style="fill:#000000; stroke:none;" d="M110.667 58.3333L111.333 58.6667L110.667 58.3333z"/>
<path style="fill:#0f0517; stroke:none;" d="M126 59L126 64L127 64L126 59z"/>
<path style="fill:#000000; stroke:none;" d="M113.667 60.3333L114.333 60.6667L113.667 60.3333M97.3333 62.6667L97.6667 63.3333L97.3333 62.6667z"/>
<path style="fill:#060209; stroke:none;" d="M303 64L303 67L304 67L303 64z"/>
<path style="fill:#0a030f; stroke:none;" d="M127 65L127 71L128 71L127 65z"/>
<path style="fill:#180a25; stroke:none;" d="M302 67L302 74L303 74L302 67z"/>
<path style="fill:#0b0411; stroke:none;" d="M216 72L216 73L253 73C243.202 68.8887 226.649 72 216 72z"/>
<path style="fill:#000000; stroke:none;" d="M207 73L207 74L216 74L207 73z"/>
<path style="fill:#15081f; stroke:none;" d="M255 73L255 74L261 74L255 73z"/>
<path style="fill:#000000; stroke:none;" d="M202 74L202 75L206 75L202 74z"/>
<path style="fill:#0d0513; stroke:none;" d="M193 75L193 76L198 76L193 75z"/>
<path style="fill:#040106; stroke:none;" d="M190.667 76.3333L191.333 76.6667L190.667 76.3333z"/>
<path style="fill:#010001; stroke:none;" d="M183 77L183 78L187 78L183 77z"/>
<path style="fill:#190a26; stroke:none;" d="M301 77L301 81L302 81L301 77z"/>
<path style="fill:#030004; stroke:none;" d="M178 78L178 79L182 79L178 78z"/>
<path style="fill:#010001; stroke:none;" d="M176.667 79.3333L177.333 79.6667L176.667 79.3333z"/>
<path style="fill:#000001; stroke:none;" d="M106.333 80.6667L106.667 81.3333L106.333 80.6667z"/>
<path style="fill:#0c0412; stroke:none;" d="M171 80L171 81L174 81L171 80z"/>
<path style="fill:#050108; stroke:none;" d="M107.333 82.6667L107.667 83.3333L107.333 82.6667z"/>
<path style="fill:#08030c; stroke:none;" d="M164.667 82.3333L165.333 82.6667L164.667 82.3333z"/>
<path style="fill:#050108; stroke:none;" d="M161.667 83.3333L162.333 83.6667L161.667 83.3333z"/>
<path style="fill:#010003; stroke:none;" d="M155.667 85.3333L156.333 85.6667L155.667 85.3333z"/>
<path style="fill:#020004; stroke:none;" d="M152.667 86.3333L153.333 86.6667L152.667 86.3333z"/>
<path style="fill:#3d195b; stroke:none;" d="M127 111L127 112C139.996 113.752 153.128 122.456 158 135C147.923 131.57 140.062 126.971 129 128.174C96.7562 131.68 105.21 173.342 114 193C100.942 183.342 89.5193 166.082 91.1713 149C91.8755 141.718 95.4957 135.667 98 129C87.5949 133.944 78.1348 142.966 70 151.004C52.2905 168.503 30.0996 191.355 23 216L47 220C20.4646 248.049 0 296.229 0 335L40 323C29.7919 355.135 34.3036 399.822 42.2963 432C44.4922 440.84 47.0516 448.444 50.1806 456.999C51.2832 460.014 52.9625 464.825 57.0432 464.208C64.0075 463.153 72.2579 452.734 77 448C88.6241 436.395 99.105 423.968 109.102 410.961C113.825 404.816 117.274 397.254 123 392C129.946 418.837 133.486 444.206 130.83 472C129.814 482.641 127.224 493.492 125.197 504C124.381 508.227 121.843 514.596 123.607 518.787C125.135 522.417 130.689 524.175 134 525.691C144.679 530.581 156.422 534.129 168 536.079C215.524 544.086 267.315 531.746 307 505L315 534C326.85 530.207 339.394 517.602 348 509C376.237 480.773 399.996 438.972 400 398L420 418C424.818 398.72 430.689 379.966 432.826 360C436.876 322.174 427.635 281.786 410.753 248C404.527 235.539 395.587 211.887 383 205L382 217L365 198C374.538 195.233 370.211 180.584 362.826 177.121C356.032 173.935 351.076 183.605 345.17 183.837C339 184.079 330.64 175.28 324 174C336.908 194.725 353.925 207.925 371 225C357.793 220.281 342.917 220.114 329 221.09C324.266 221.421 316.811 225.615 312.424 224.363C308.826 223.337 306.052 218.651 303.715 216C297.528 208.984 280.624 198.438 279.247 188.996C278.35 182.848 283.606 177.229 286 172C281.33 172.039 277.164 172.571 273.015 174.905C270.527 176.305 267.528 180.149 264.424 179.553C258.598 178.435 251.497 172.724 246 170.173C231.047 163.234 219.154 164.776 205 172.873C200.059 175.699 195.461 178.766 193 184C202.342 189.509 212 194.729 223 195.829C233.05 196.835 244.294 194.138 254 197.724C268.806 203.193 280.633 221.624 292 232C265.641 223.097 238.416 231.986 212 225.764C193.875 221.495 176.522 205.099 175 186L156 183C168.659 176.433 175.81 162.929 191 160L182 151L182 149C199.672 140.584 213.377 130.408 233 125.3C238.318 123.916 245.435 120.534 251 121.592C269.654 125.139 283.459 144.184 301 150L307 127L372 172C369.369 162.38 364.183 153.615 361.427 144C359.776 138.238 359.761 130.025 356.4 125.039C353.476 120.701 347.967 117.794 343.83 114.707C329.556 104.057 304.994 92.7865 287 92L292 114C282.611 104.611 272.612 92.9926 259.91 87.9908C250.997 84.4807 237.505 86 228 86C193.833 86 157.191 94.9049 127 111z"/>
<path style="fill:#07020b; stroke:none;" d="M245 86L245 87L254 87L245 86z"/>
<path style="fill:#020003; stroke:none;" d="M109.333 87.6667L109.667 88.3333L109.333 87.6667z"/>
<path style="fill:#040106; stroke:none;" d="M149.667 87.3333L150.333 87.6667L149.667 87.3333z"/>
<path style="fill:#0b0410; stroke:none;" d="M146.667 88.3333L147.333 88.6667L146.667 88.3333z"/>
<path style="fill:#010001; stroke:none;" d="M144.667 89.3333L145.333 89.6667L144.667 89.3333z"/>
<path style="fill:#000000; stroke:none;" d="M263.667 90.3333L264.333 90.6667L263.667 90.3333z"/>
<path style="fill:#1a0b27; stroke:none;" d="M503 90L503 269L504 269L504 91L570 91L549 90L503 90z"/>
<path style="fill:#010002; stroke:none;" d="M139.667 91.3333L140.333 91.6667L139.667 91.3333z"/>
<path style="fill:#010003; stroke:none;" d="M286 91L286 93L288 91L286 91z"/>
<path style="fill:#3d195b; stroke:none;" d="M504 91L504 269L538 269L538 210C560.808 210 583.363 212.091 603.015 198.161C630.938 178.368 632.279 126.372 605.985 104.808C579.39 82.9971 536.05 91 504 91z"/>
<path style="fill:#0a0410; stroke:none;" d="M574 91L574 92L577 92L574 91z"/>
<path style="fill:#040106; stroke:none;" d="M111.333 92.6667L111.667 93.3333L111.333 92.6667z"/>
<path style="fill:#050108; stroke:none;" d="M134.667 93.3333L135.333 93.6667L134.667 93.3333z"/>
<path style="fill:#020004; stroke:none;" d="M132.667 94.3333L133.333 94.6667L132.667 94.3333z"/>
<path style="fill:#0a0410; stroke:none;" d="M297 94L297 95L300 95L297 94z"/>
<path style="fill:#000000; stroke:none;" d="M586.667 94.3333L587.333 94.6667L586.667 94.3333M112.333 95.6667L112.667 96.3333L112.333 95.6667z"/>
<path style="fill:#000001; stroke:none;" d="M130.667 95.3333L131.333 95.6667L130.667 95.3333z"/>
<path style="fill:#06020a; stroke:none;" d="M588.667 95.3333L589.333 95.6667L588.667 95.3333z"/>
<path style="fill:#13071d; stroke:none;" d="M1042 95L1042 96L1050 96L1042 95z"/>
<path style="fill:#000001; stroke:none;" d="M288.333 96.6667L288.667 97.3333L288.333 96.6667z"/>
<path style="fill:#000000; stroke:none;" d="M591.667 96.3333L592.333 96.6667L591.667 96.3333z"/>
<path style="fill:#3d195b; stroke:none;" d="M1038 96.6489C1024.85 100.621 1021.97 120.004 1030.42 129.815C1035.82 136.083 1046.54 136.297 1054 134.057C1066.2 130.393 1069.66 112.58 1062.36 103.055C1056.99 96.0518 1046.17 94.1801 1038 96.6489z"/>
<path style="fill:#0c0413; stroke:none;" d="M113 97L113 100L114 100L113 97z"/>
<path style="fill:#020003; stroke:none;" d="M1054.67 97.3333L1055.33 97.6667L1054.67 97.3333z"/>
<path style="fill:#000000; stroke:none;" d="M1056.67 98.3333L1057.33 98.6667L1056.67 98.3333z"/>
<path style="fill:#07020b; stroke:none;" d="M312.667 99.3333L313.333 99.6667L312.667 99.3333z"/>
<path style="fill:#09030d; stroke:none;" d="M114.333 100.667L114.667 101.333L114.333 100.667z"/>
<path style="fill:#000001; stroke:none;" d="M315.667 100.333L316.333 100.667L315.667 100.333z"/>
<path style="fill:#000000; stroke:none;" d="M118.667 101.333L119.333 101.667L118.667 101.333z"/>
<path style="fill:#06020a; stroke:none;" d="M317.667 101.333L318.333 101.667L317.667 101.333z"/>
<path style="fill:#000000; stroke:none;" d="M322.667 103.333L323.333 103.667L322.667 103.333z"/>
<path style="fill:#020004; stroke:none;" d="M324.667 104.333L325.333 104.667L324.667 104.333z"/>
<path style="fill:#050108; stroke:none;" d="M291 105L291 109L292 109L291 105z"/>
<path style="fill:#020004; stroke:none;" d="M326.667 105.333L327.333 105.667L326.667 105.333z"/>
<path style="fill:#030105; stroke:none;" d="M328.667 106.333L329.333 106.667L328.667 106.333z"/>
<path style="fill:#010002; stroke:none;" d="M330.667 107.333L331.333 107.667L330.667 107.333z"/>
<path style="fill:#000000; stroke:none;" d="M332.667 108.333L333.333 108.667L332.667 108.333z"/>
<path style="fill:#13071d; stroke:none;" d="M1025 111L1025 120L1026 120L1025 111z"/>
<path style="fill:#000000; stroke:none;" d="M346.667 117.333L347.333 117.667L346.667 117.333z"/>
<path style="fill:#0f0617; stroke:none;" d="M247 121L247 122L253 122L247 121z"/>
<path style="fill:#0d0513; stroke:none;" d="M1026.33 121.667L1026.67 122.333L1026.33 121.667z"/>
<path style="fill:#010002; stroke:none;" d="M244.667 122.333L245.333 122.667L244.667 122.333z"/>
<path style="fill:#000000; stroke:none;" d="M237 123L237 124L241 124L237 123z"/>
<path style="fill:#0a040f; stroke:none;" d="M538 123L538 177L539 177L539 124L565 124L538 123z"/>
<path style="fill:#000001; stroke:none;" d="M1064.33 123.667L1064.67 124.333L1064.33 123.667z"/>
<path style="fill:#ffffff; stroke:none;" d="M539 124L539 177C551.275 177 566.125 178.851 576.996 171.867C592.047 162.197 591.755 136.703 575.996 127.905C565.135 121.842 550.961 124 539 124z"/>
<path style="fill:#000001; stroke:none;" d="M1027.33 124.667L1027.67 125.333L1027.33 124.667z"/>
<path style="fill:#000000; stroke:none;" d="M1063.33 125.667L1063.67 126.333L1063.33 125.667z"/>
<path style="fill:#08030d; stroke:none;" d="M226.667 126.333L227.333 126.667L226.667 126.333z"/>
<path style="fill:#010002; stroke:none;" d="M307 127L307 130L308 130L309 127L307 127z"/>
<path style="fill:#020003; stroke:none;" d="M220.667 128.333L221.333 128.667L220.667 128.333z"/>
<path style="fill:#040106; stroke:none;" d="M217.667 129.333L218.333 129.667L217.667 129.333z"/>
<path style="fill:#07020b; stroke:none;" d="M146.667 130.333L147.333 130.667L146.667 130.333z"/>
<path style="fill:#000001; stroke:none;" d="M156.333 130.667L156.667 131.333L156.333 130.667z"/>
<path style="fill:#08030d; stroke:none;" d="M214.667 130.333L215.333 130.667L214.667 130.333z"/>
<path style="fill:#000000; stroke:none;" d="M149.667 131.333L150.333 131.667L149.667 131.333z"/>
<path style="fill:#000001; stroke:none;" d="M212.667 131.333L213.333 131.667L212.667 131.333z"/>
<path style="fill:#08030d; stroke:none;" d="M306 131L306 136L307 136L306 131z"/>
<path style="fill:#020003; stroke:none;" d="M151.667 132.333L152.333 132.667L151.667 132.333z"/>
<path style="fill:#000000; stroke:none;" d="M582.333 132.667L582.667 133.333L582.333 132.667z"/>
<path style="fill:#000001; stroke:none;" d="M153.667 133.333L154.333 133.667L153.667 133.333z"/>
<path style="fill:#030105; stroke:none;" d="M207.667 133.333L208.333 133.667L207.667 133.333z"/>
<path style="fill:#010001; stroke:none;" d="M205.667 134.333L206.333 134.667L205.667 134.333z"/>
<path style="fill:#050108; stroke:none;" d="M1052.67 134.333L1053.33 134.667L1052.67 134.333z"/>
<path style="fill:#010002; stroke:none;" d="M94.3333 135.667L94.6667 136.333L94.3333 135.667z"/>
<path style="fill:#000000; stroke:none;" d="M203.667 135.333L204.333 135.667L203.667 135.333z"/>
<path style="fill:#1c0c2b; stroke:none;" d="M1041 135L1041 136L1051 136L1041 135z"/>
<path style="fill:#000000; stroke:none;" d="M201.667 136.333L202.333 136.667L201.667 136.333z"/>
<path style="fill:#000001; stroke:none;" d="M305 136L305 140L306 140L305 136z"/>
<path style="fill:#000000; stroke:none;" d="M199.667 137.333L200.333 137.667L199.667 137.333z"/>
<path style="fill:#010003; stroke:none;" d="M197.667 138.333L198.333 138.667L197.667 138.333z"/>
<path style="fill:#000000; stroke:none;" d="M586.333 139.667L586.667 140.333L586.333 139.667z"/>
<path style="fill:#020003; stroke:none;" d="M92 141L92 145L93 145L92 141z"/>
<path style="fill:#000000; stroke:none;" d="M192.667 141.333L193.333 141.667L192.667 141.333z"/>
<path style="fill:#1f0d2e; stroke:none;" d="M624 141L624 159L625 159L624 141z"/>
<path style="fill:#000000; stroke:none;" d="M189.667 143.333L190.333 143.667L189.667 143.333M186.667 145.333L187.333 145.667L186.667 145.333z"/>
<path style="fill:#1d0b2b; stroke:none;" d="M588 145L588 154L589 154L588 145z"/>
<path style="fill:#1b0a2a; stroke:none;" d="M91 146L91 157L92 157L91 146z"/>
<path style="fill:#000000; stroke:none;" d="M302.333 146.667L302.667 147.333L302.333 146.667z"/>
<path style="fill:#3d195b; stroke:none;" d="M823 250L823 249C818.061 244.061 809.406 231.634 802 230.906C797.233 230.437 790.577 237.709 786 239.536C766.191 247.446 750.905 239.706 742 221L828 221C828 199.179 827.495 179.782 810.71 163.439C779.766 133.311 725.55 149.148 711.436 188C708.614 195.769 707.997 203.812 708 212C708.003 219.896 709.347 226.696 712.338 234C731.118 279.863 790.305 282.583 823 250z"/>
<path style="fill:#000000; stroke:none;" d="M776 148L776 149L780 149L776 148z"/>
<path style="fill:#3d195b; stroke:none;" d="M874 164C872.388 160.707 872.206 154.31 869.272 152.028C864.083 147.989 847.493 151 841 151L841 269L873 269C873 245.747 870.652 221.107 873.174 198C874.016 190.282 880.05 181.329 888 179.444C898.709 176.906 908.192 186.378 910.529 196C912.325 203.393 911 212.416 911 220L911 269L943 269C943 245.79 940.53 221.051 943.129 198C944.025 190.047 949.756 181.284 958 179.434C968.475 177.082 978.69 186.257 980.532 196C984.84 218.787 981 245.794 981 269L1013 269L1013 209C1013 196.824 1014.21 184.526 1009.55 173C996.197 139.978 955.237 142.836 935 166C925.217 142.896 884.83 141.255 874 164M1189 250L1189 249C1184.07 244.073 1175.35 231.733 1168 230.917C1163.15 230.379 1155.81 238.125 1151 239.914C1131.41 247.198 1116.72 239.314 1108 221L1194 221C1194 199.116 1193.54 179.828 1176.71 163.439C1145.77 133.311 1091.55 149.148 1077.44 188C1074.61 195.769 1074 203.812 1074 212C1074.02 274.003 1150.53 288.339 1189 250z"/>
<path style="fill:#000000; stroke:none;" d="M1142 148L1142 149L1146 149L1142 148M781 149L781 150L785 150L781 149M980 149L980 150L984 150L980 149M1147 149L1147 150L1151 150L1147 149z"/>
<path style="fill:#3d195b; stroke:none;" d="M668 166C666.507 162.485 666.508 156.577 664.012 153.742C659.84 149.005 641.995 152 636 152L636 269L668 269L668 216C668 203.516 669.764 190.457 682.174 183.957C690.105 179.802 697.582 181.93 706 182C706 175.177 709.249 157.003 704.972 151.603C702.981 149.09 697.797 149.987 695 150.001C683.498 150.056 673.062 155.369 668 166z"/>
<path style="fill:#000000; stroke:none;" d="M985.667 150.333L986.333 150.667L985.667 150.333z"/>
<path style="fill:#3d195b; stroke:none;" d="M1239 168L1238 168L1236 151L1207 151L1207 269L1239 269C1239 243.85 1228.03 187.05 1263 181.259C1267.68 180.485 1272.37 181.415 1277 182C1277 175.274 1280.24 157.019 1275.97 151.742C1273.92 149.205 1268.86 149.971 1266 150.004C1254.16 150.141 1243 156.541 1239 168z"/>
<path style="fill:#000000; stroke:none;" d="M1275.67 150.333L1276.33 150.667L1275.67 150.333z"/>
<path style="fill:#1a0b26; stroke:none;" d="M347 151L350 153L347 151z"/>
<path style="fill:#1e0d2e; stroke:none;" d="M635 151L635 269L636 269L636 152L664 153C659.565 147.925 641.619 151 635 151z"/>
<path style="fill:#030105; stroke:none;" d="M706 151C706 158.149 709.371 177.87 703 182L703 183L707 183L706 151z"/>
<path style="fill:#07020b; stroke:none;" d="M789.667 151.333L790.333 151.667L789.667 151.333z"/>
<path style="fill:#010003; stroke:none;" d="M918.667 151.333L919.333 151.667L918.667 151.333z"/>
<path style="fill:#07020b; stroke:none;" d="M987.667 151.333L988.333 151.667L987.667 151.333z"/>
<path style="fill:#200e32; stroke:none;" d="M1029 151L1029 152L1061 152L1061 269L1062 269L1062 151L1029 151z"/>
<path style="fill:#07020b; stroke:none;" d="M1155.67 151.333L1156.33 151.667L1155.67 151.333z"/>
<path style="fill:#280f3c; stroke:none;" d="M1277 151C1277 159.239 1280.05 175.328 1275 182L1275 183C1280.03 181.923 1279.57 155.461 1277 151z"/>
<path style="fill:#000001; stroke:none;" d="M792.667 152.333L793.333 152.667L792.667 152.333z"/>
<path style="fill:#010002; stroke:none;" d="M920.667 152.333L921.333 152.667L920.667 152.333z"/>
<path style="fill:#3d195b; stroke:none;" d="M1029 152L1029 269L1061 269L1061 152L1029 152z"/>
<path style="fill:#000001; stroke:none;" d="M1158.67 152.333L1159.33 152.667L1158.67 152.333z"/>
<path style="fill:#030105; stroke:none;" d="M794.667 153.333L795.333 153.667L794.667 153.333M1160.67 153.333L1161.33 153.667L1160.67 153.333z"/>
<path style="fill:#000000; stroke:none;" d="M993.667 154.333L994.333 154.667L993.667 154.333z"/>
<path style="fill:#100619; stroke:none;" d="M105 155L105 167L106 167L105 155z"/>
<path style="fill:#000001; stroke:none;" d="M798.667 155.333L799.333 155.667L798.667 155.333z"/>
<path style="fill:#010001; stroke:none;" d="M1164.67 155.333L1165.33 155.667L1164.67 155.333z"/>
<path style="fill:#000000; stroke:none;" d="M997.667 157.333L998.333 157.667L997.667 157.333z"/>
<path style="fill:#040107; stroke:none;" d="M191.333 158.667L191.667 159.333L191.333 158.667z"/>
<path style="fill:#060209; stroke:none;" d="M187.667 160.333L188.333 160.667L187.667 160.333z"/>
<path style="fill:#11061a; stroke:none;" d="M623 160L623 165L624 165L623 160z"/>
<path style="fill:#000000; stroke:none;" d="M185.667 161.333L186.333 161.667L185.667 161.333z"/>
<path style="fill:#11061a; stroke:none;" d="M227 164L227 165L232 165L227 164z"/>
<path style="fill:#020004; stroke:none;" d="M233.667 165.333L234.333 165.667L233.667 165.333z"/>
<path style="fill:#0e0515; stroke:none;" d="M1238 165L1238 168L1240 167L1240 166L1238 165z"/>
<path style="fill:#010001; stroke:none;" d="M175.667 166.333L176.333 166.667L175.667 166.333z"/>
<path style="fill:#010002; stroke:none;" d="M236.667 166.333L237.333 166.667L236.667 166.333z"/>
<path style="fill:#0c0413; stroke:none;" d="M238.667 167.333L239.333 167.667L238.667 167.333z"/>
<path style="fill:#000000; stroke:none;" d="M172.667 168.333L173.333 168.667L172.667 168.333z"/>
<path style="fill:#040106; stroke:none;" d="M241.667 168.333L242.333 168.667L241.667 168.333z"/>
<path style="fill:#000001; stroke:none;" d="M246.667 170.333L247.333 170.667L246.667 170.333z"/>
<path style="fill:#0b0411; stroke:none;" d="M621.333 170.667L621.667 171.333L621.333 170.667z"/>
<path style="fill:#1a0a27; stroke:none;" d="M816 170L818 173L816 170z"/>
<path style="fill:#1b0a28; stroke:none;" d="M1182 170L1184 173L1182 170z"/>
<path style="fill:#020004; stroke:none;" d="M106.333 171.667L106.667 172.333L106.333 171.667z"/>
<path style="fill:#000000; stroke:none;" d="M168.667 171.333L169.333 171.667L168.667 171.333z"/>
<path style="fill:#010002; stroke:none;" d="M248.667 171.333L249.333 171.667L248.667 171.333z"/>
<path style="fill:#09030e; stroke:none;" d="M283 171L283 172L287 173L283 171z"/>
<path style="fill:#020003; stroke:none;" d="M250.667 172.333L251.333 172.667L250.667 172.333z"/>
<path style="fill:#030004; stroke:none;" d="M252.667 173.333L253.333 173.667L252.667 173.333z"/>
<path style="fill:#06020a; stroke:none;" d="M620.333 173.667L620.667 174.333L620.333 173.667z"/>
<path style="fill:#000001; stroke:none;" d="M254.667 174.333L255.333 174.667L254.667 174.333M283.333 175.667L283.667 176.333L283.333 175.667M330.667 176.333L331.333 176.667L330.667 176.333M332.667 177.333L333.333 177.667L332.667 177.333M762 177L762 178L766 178L762 177z"/>
<path style="fill:#ffffff; stroke:none;" d="M743 197L796 197C787.888 173.6 748.122 168.617 743 197z"/>
<path style="fill:#000001; stroke:none;" d="M1128 177L1128 178L1132 178L1128 177z"/>
<path style="fill:#ffffff; stroke:none;" d="M1109 197L1162 197C1153.99 173.534 1114.11 168.668 1109 197z"/>
<path style="fill:#0b0411; stroke:none;" d="M108.333 178.667L108.667 179.333L108.333 178.667z"/>
<path style="fill:#000000; stroke:none;" d="M261.667 178.333L262.333 178.667L261.667 178.333M334.667 178.333L335.333 178.667L334.667 178.333M618.333 178.667L618.667 179.333L618.333 178.667z"/>
<path style="fill:#020003; stroke:none;" d="M759.667 178.333L760.333 178.667L759.667 178.333z"/>
<path style="fill:#020004; stroke:none;" d="M1125.67 178.333L1126.33 178.667L1125.67 178.333z"/>
<path style="fill:#000000; stroke:none;" d="M264 180L264 181L268 180L264 180z"/>
<path style="fill:#040107; stroke:none;" d="M756.667 179.333L757.333 179.667L756.667 179.333z"/>
<path style="fill:#08030c; stroke:none;" d="M886 179L886 180L891 180L886 179z"/>
<path style="fill:#050208; stroke:none;" d="M956 179L956 180L961 180L956 179z"/>
<path style="fill:#040107; stroke:none;" d="M1122.67 179.333L1123.33 179.667L1122.67 179.333z"/>
<path style="fill:#020004; stroke:none;" d="M754.667 180.333L755.333 180.667L754.667 180.333z"/>
<path style="fill:#020003; stroke:none;" d="M884.667 180.333L885.333 180.667L884.667 180.333z"/>
<path style="fill:#000000; stroke:none;" d="M954.667 180.333L955.333 180.667L954.667 180.333z"/>
<path style="fill:#020004; stroke:none;" d="M1120.67 180.333L1121.33 180.667L1120.67 180.333z"/>
<path style="fill:#0a030f; stroke:none;" d="M109.333 181.667L109.667 182.333L109.333 181.667z"/>
<path style="fill:#07020b; stroke:none;" d="M688 181L688 182L699 182L688 181z"/>
<path style="fill:#0d0513; stroke:none;" d="M1260 181L1260 182L1274 182L1260 181z"/>
<path style="fill:#050108; stroke:none;" d="M157 182L156 184L158 184L157 182z"/>
<path style="fill:#050208; stroke:none;" d="M685.667 182.333L686.333 182.667L685.667 182.333z"/>
<path style="fill:#000000; stroke:none;" d="M751.667 182.333L752.333 182.667L751.667 182.333M1117.67 182.333L1118.33 182.667L1117.67 182.333z"/>
<path style="fill:#0a030f; stroke:none;" d="M279 183L279 186L280 186L279 183z"/>
<path style="fill:#040107; stroke:none;" d="M682.667 183.333L683.333 183.667L682.667 183.333z"/>
<path style="fill:#000000; stroke:none;" d="M1254.67 183.333L1255.33 183.667L1254.67 183.333z"/>
<path style="fill:#010002; stroke:none;" d="M110.333 184.667L110.667 185.333L110.333 184.667z"/>
<path style="fill:#0f0617; stroke:none;" d="M159 184L159 185L164 185L159 184z"/>
<path style="fill:#000000; stroke:none;" d="M332.333 184.667L332.667 185.333L332.333 184.667M343.667 184.333L344.333 184.667L343.667 184.333z"/>
<path style="fill:#010002; stroke:none;" d="M680.667 184.333L681.333 184.667L680.667 184.333z"/>
<path style="fill:#000000; stroke:none;" d="M1250.67 185.333L1251.33 185.667L1250.67 185.333z"/>
<path style="fill:#050108; stroke:none;" d="M111.333 186.667L111.667 187.333L111.333 186.667z"/>
<path style="fill:#180a25; stroke:none;" d="M175 186L175 191L176 191L175 186z"/>
<path style="fill:#000000; stroke:none;" d="M677.667 186.333L678.333 186.667L677.667 186.333M334.333 187.667L334.667 188.333L334.333 187.667M746.333 187.667L746.667 188.333L746.333 187.667M977.333 187.667L977.667 188.333L977.333 187.667M1112.33 187.667L1112.67 188.333L1112.33 187.667M792.333 188.667L792.667 189.333L792.333 188.667z"/>
<path style="fill:#030105; stroke:none;" d="M945.333 188.667L945.667 189.333L945.333 188.667z"/>
<path style="fill:#000000; stroke:none;" d="M108.667 189.333L109.333 189.667L108.667 189.333z"/>
<path style="fill:#010001; stroke:none;" d="M875.333 189.667L875.667 190.333L875.333 189.667z"/>
<path style="fill:#010003; stroke:none;" d="M978.333 189.667L978.667 190.333L978.333 189.667z"/>
<path style="fill:#000000; stroke:none;" d="M336.333 190.667L336.667 191.333L336.333 190.667M673.333 190.667L673.667 191.333L673.333 190.667z"/>
<path style="fill:#020004; stroke:none;" d="M744.333 190.667L744.667 191.333L744.333 190.667z"/>
<path style="fill:#030105; stroke:none;" d="M1110.33 190.667L1110.67 191.333L1110.33 190.667z"/>
<path style="fill:#000000; stroke:none;" d="M111 191L111 192L114 193L111 191M874 191L874 195L875 195L874 191M979 191L979 195L980 195L979 191z"/>
<path style="fill:#08030c; stroke:none;" d="M743.333 192.667L743.667 193.333L743.333 192.667z"/>
<path style="fill:#08030d; stroke:none;" d="M1109.33 192.667L1109.67 193.333L1109.33 192.667z"/>
<path style="fill:#09030e; stroke:none;" d="M176 193L176 196L177 196L176 193z"/>
<path style="fill:#07020b; stroke:none;" d="M795.333 194.667L795.667 195.333L795.333 194.667z"/>
<path style="fill:#0d0514; stroke:none;" d="M910 194L910 269L911 269L911 217L910 194z"/>
<path style="fill:#0b0412; stroke:none;" d="M943 194L943 269L944 269L944 217L943 194z"/>
<path style="fill:#07020a; stroke:none;" d="M1161.33 194.667L1161.67 195.333L1161.33 194.667z"/>
<path style="fill:#29113d; stroke:none;" d="M742 195C743.04 199.853 750.912 198 755 198L796 198L796 197L760 197L742 195z"/>
<path style="fill:#1e0d2e; stroke:none;" d="M873 195L873 269L874 269L874 218L873 195z"/>
<path style="fill:#200c2f; stroke:none;" d="M980 195L980 269L981 269L981 218L980 195z"/>
<path style="fill:#29113d; stroke:none;" d="M1108 195C1109.04 199.853 1116.91 198 1121 198L1162 198L1162 197L1126 197L1108 195z"/>
<path style="fill:#050108; stroke:none;" d="M1241.33 197.667L1241.67 198.333L1241.33 197.667z"/>
<path style="fill:#000000; stroke:none;" d="M365.667 198.333L366.333 198.667L365.667 198.333z"/>
<path style="fill:#0b0410; stroke:none;" d="M669 198L669 201L670 201L669 198z"/>
<path style="fill:#000000; stroke:none;" d="M598.667 200.333L599.333 200.667L598.667 200.333z"/>
<path style="fill:#0e0516; stroke:none;" d="M668 201L668 208L669 208L668 201z"/>
<path style="fill:#150820; stroke:none;" d="M828 202L828 218L829 218L828 202M1194 202L1194 218L1195 218L1194 202z"/>
<path style="fill:#09030d; stroke:none;" d="M590.667 204.333L591.333 204.667L590.667 204.333z"/>
<path style="fill:#200d2f; stroke:none;" d="M1239 204L1239 269L1240 269L1240 225L1239 204z"/>
<path style="fill:#010002; stroke:none;" d="M588.667 205.333L589.333 205.667L588.667 205.333z"/>
<path style="fill:#09030e; stroke:none;" d="M585.667 206.333L586.333 206.667L585.667 206.333z"/>
<path style="fill:#06020a; stroke:none;" d="M582.667 207.333L583.333 207.667L582.667 207.333z"/>
<path style="fill:#210c31; stroke:none;" d="M538 210L538 211L569 211L538 210z"/>
<path style="fill:#0a040f; stroke:none;" d="M538 211L538 269L539 269L539 230L538 211z"/>
<path style="fill:#000000; stroke:none;" d="M193.667 217.333L194.333 217.667L193.667 217.333z"/>
<path style="fill:#190b26; stroke:none;" d="M38 218L38 219L42 219L38 218z"/>
<path style="fill:#010001; stroke:none;" d="M196.667 219.333L197.333 219.667L196.667 219.333z"/>
<path style="fill:#000000; stroke:none;" d="M198.667 220.333L199.333 220.667L198.667 220.333z"/>
<path style="fill:#170923; stroke:none;" d="M333 220L333 221L353 221L333 220z"/>
<path style="fill:#0b0412; stroke:none;" d="M357 221L357 222L360 222L357 221z"/>
<path style="fill:#000000; stroke:none;" d="M202.667 222.333L203.333 222.667L202.667 222.333M361 222L361 223L365 223L361 222z"/>
<path style="fill:#060209; stroke:none;" d="M204.667 223.333L205.333 223.667L204.667 223.333z"/>
<path style="fill:#0c0412; stroke:none;" d="M207 224L207 225L210 225L207 224z"/>
<path style="fill:#09030e; stroke:none;" d="M368.667 224.333L369.333 224.667L368.667 224.333z"/>
<path style="fill:#190b26; stroke:none;" d="M210 225L210 226L214 226L210 225z"/>
<path style="fill:#050108; stroke:none;" d="M215 226L215 227L224 227L215 226z"/>
<path style="fill:#210c31; stroke:none;" d="M236 226L236 227L270 227L236 226z"/>
<path style="fill:#000000; stroke:none;" d="M274 227L274 228L278 228L274 227z"/>
<path style="fill:#1a0a27; stroke:none;" d="M40 228L39 231L40 228z"/>
<path style="fill:#000000; stroke:none;" d="M281.667 228.333L282.333 228.667L281.667 228.333z"/>
<path style="fill:#010001; stroke:none;" d="M285.667 229.333L286.333 229.667L285.667 229.333z"/>
<path style="fill:#11071a; stroke:none;" d="M287 230L287 231L292 232L287 230z"/>
<path style="fill:#180a25; stroke:none;" d="M801 229L801 230L807 234L801 229M1167 229L1167 230L1174 235L1167 229z"/>
<path style="fill:#07020a; stroke:none;" d="M711.333 231.667L711.667 232.333L711.333 231.667z"/>
<path style="fill:#060209; stroke:none;" d="M1077.33 231.667L1077.67 232.333L1077.33 231.667z"/>
<path style="fill:#010002; stroke:none;" d="M712.333 234.667L712.667 235.333L712.333 234.667M1078.33 234.667L1078.67 235.333L1078.33 234.667z"/>
<path style="fill:#060209; stroke:none;" d="M713.333 236.667L713.667 237.333L713.333 236.667z"/>
<path style="fill:#000000; stroke:none;" d="M751.667 236.333L752.333 236.667L751.667 236.333z"/>
<path style="fill:#050208; stroke:none;" d="M1079.33 236.667L1079.67 237.333L1079.33 236.667z"/>
<path style="fill:#000000; stroke:none;" d="M1117.67 236.333L1118.33 236.667L1117.67 236.333z"/>
<path style="fill:#000001; stroke:none;" d="M754.667 238.333L755.333 238.667L754.667 238.333M1120.67 238.333L1121.33 238.667L1120.67 238.333z"/>
<path style="fill:#000000; stroke:none;" d="M756.667 239.333L757.333 239.667L756.667 239.333M1122.67 239.333L1123.33 239.667L1122.67 239.333z"/>
<path style="fill:#040107; stroke:none;" d="M758.667 240.333L759.333 240.667L758.667 240.333M1124.67 240.333L1125.33 240.667L1124.67 240.333z"/>
<path style="fill:#07020a; stroke:none;" d="M761.667 241.333L762.333 241.667L761.667 241.333z"/>
<path style="fill:#07020b; stroke:none;" d="M1127.67 241.333L1128.33 241.667L1127.67 241.333z"/>
<path style="fill:#010003; stroke:none;" d="M716.333 242.667L716.667 243.333L716.333 242.667z"/>
<path style="fill:#030105; stroke:none;" d="M764 242L764 243L779 243L764 242z"/>
<path style="fill:#010002; stroke:none;" d="M1082.33 242.667L1082.67 243.333L1082.33 242.667z"/>
<path style="fill:#030105; stroke:none;" d="M1130 242L1130 243L1145 243L1130 242z"/>
<path style="fill:#0b0412; stroke:none;" d="M307 245L307 246L312 246L307 245z"/>
<path style="fill:#000000; stroke:none;" d="M303 246L303 247L307 247L303 246z"/>
<path style="fill:#ffffff; stroke:none;" d="M246 278C249.475 290.063 257.81 302.094 264 313C266.155 316.796 268.031 322.809 272.105 324.958C276.17 327.101 282.917 324.613 287 323.41C301.399 319.165 313.98 310.292 326 301.575C330.126 298.583 336.514 294.965 338.397 289.985C340.297 284.958 341.098 266.094 337.972 261.638C335.104 257.551 326.327 255.213 322 252.716C318.036 250.428 313.781 246.414 309 246.307C299.66 246.099 289.077 252.206 281 256.247C268.58 262.461 257.752 270.747 246 278z"/>
<path style="fill:#020003; stroke:none;" d="M378.667 247.333L379.333 247.667L378.667 247.333z"/>
<path style="fill:#ffffff; stroke:none;" d="M380 320L382 320C390.559 294.699 388.169 273.105 380 248C374.277 250.201 360.997 257.225 358.603 263.104C356.795 267.545 358 274.273 358 279C358 283.051 357.161 288.266 359.028 292C364.136 302.216 374.903 309.225 380 320z"/>
<path style="fill:#0a030f; stroke:none;" d="M380.333 248.667L380.667 249.333L380.333 248.667z"/>
<path style="fill:#000000; stroke:none;" d="M720.333 248.667L720.667 249.333L720.333 248.667M1086.33 248.667L1086.67 249.333L1086.33 248.667M375.667 249.333L376.333 249.667L375.667 249.333z"/>
<path style="fill:#020003; stroke:none;" d="M292.667 250.333L293.333 250.667L292.667 250.333z"/>
<path style="fill:#030105; stroke:none;" d="M381.333 251.667L381.667 252.333L381.333 251.667z"/>
<path style="fill:#040106; stroke:none;" d="M287.667 252.333L288.333 252.667L287.667 252.333z"/>
<path style="fill:#000000; stroke:none;" d="M371.667 252.333L372.333 252.667L371.667 252.333z"/>
<path style="fill:#030004; stroke:none;" d="M285.667 253.333L286.333 253.667L285.667 253.333z"/>
<path style="fill:#000001; stroke:none;" d="M283.667 254.333L284.333 254.667L283.667 254.333z"/>
<path style="fill:#010002; stroke:none;" d="M382.333 254.667L382.667 255.333L382.333 254.667z"/>
<path style="fill:#000000; stroke:none;" d="M281.667 255.333L282.333 255.667L281.667 255.333z"/>
<path style="fill:#010001; stroke:none;" d="M279.667 256.333L280.333 256.667L279.667 256.333z"/>
<path style="fill:#010002; stroke:none;" d="M277.667 257.333L278.333 257.667L277.667 257.333M362.667 258.333L363.333 258.667L362.667 258.333z"/>
<path style="fill:#000000; stroke:none;" d="M812.667 258.333L813.333 258.667L812.667 258.333M1178.67 258.333L1179.33 258.667L1178.67 258.333z"/>
<path style="fill:#060209; stroke:none;" d="M337 260L337 261C341.941 267.521 339 282.957 339 291L340 291L340 260L337 260z"/>
<path style="fill:#08030d; stroke:none;" d="M384.333 260.667L384.667 261.333L384.333 260.667z"/>
<path style="fill:#000000; stroke:none;" d="M270.667 261.333L271.333 261.667L270.667 261.333z"/>
<path style="fill:#010001; stroke:none;" d="M806.667 262.333L807.333 262.667L806.667 262.333M1172.67 262.333L1173.33 262.667L1172.67 262.333z"/>
<path style="fill:#000000; stroke:none;" d="M265.667 264.333L266.333 264.667L265.667 264.333M262.667 266.333L263.333 266.667L262.667 266.333z"/>
<path style="fill:#050208; stroke:none;" d="M798.667 266.333L799.333 266.667L798.667 266.333M1164.67 266.333L1165.33 266.667L1164.67 266.333z"/>
<path style="fill:#040106; stroke:none;" d="M386 267L386 271L387 271L386 267z"/>
<path style="fill:#000000; stroke:none;" d="M796.667 267.333L797.333 267.667L796.667 267.333M1162.67 267.333L1163.33 267.667L1162.67 267.333z"/>
<path style="fill:#020004; stroke:none;" d="M793.667 268.333L794.333 268.667L793.667 268.333M1159.67 268.333L1160.33 268.667L1159.67 268.333z"/>
<path style="fill:#020003; stroke:none;" d="M786.667 270.333L787.333 270.667L786.667 270.333M1152.67 270.333L1153.33 270.667L1152.67 270.333z"/>
<path style="fill:#000001; stroke:none;" d="M779 271L779 272L783 272L779 271M1145 271L1145 272L1149 272L1145 271z"/>
<path style="fill:#0e0516; stroke:none;" d="M387 272L387 278L388 278L387 272z"/>
<path style="fill:#13071d; stroke:none;" d="M388 279L388 297L389 297L388 279z"/>
<path style="fill:#1a0b27; stroke:none;" d="M503 287L503 462L504 462L504 288L538 288L503 287z"/>
<path style="fill:#0a040f; stroke:none;" d="M538 287L538 429L614 429L614 428L539 428L539 329C539 317.056 542.607 297.98 538 287z"/>
<path style="fill:#3d195b; stroke:none;" d="M504 288L504 461L613 461L613 429L538 429L538 288L504 288z"/>
<path style="fill:#150820; stroke:none;" d="M431 314L431 321L432 321L431 314z"/>
<path style="fill:#08030d; stroke:none;" d="M380 320L380 322L382 320L380 320z"/>
<path style="fill:#030105; stroke:none;" d="M334 322L334 323L358 323L334 322z"/>
<path style="fill:#060209; stroke:none;" d="M37 323L37 324L40 325L37 323z"/>
<path style="fill:#ffffff; stroke:none;" d="M285 350L299 378C312.511 376.005 326.345 368.449 336 359L340 393C356.049 383.723 375.081 355.92 366.218 337C363.96 332.179 360.828 324.142 354.91 323.148C327.595 318.563 310.668 344.688 285 350z"/>
<path style="fill:#000000; stroke:none;" d="M358.333 323.667L358.667 324.333L358.333 323.667z"/>
<path style="fill:#0c0412; stroke:none;" d="M34 324L34 325L37 325L34 324z"/>
<path style="fill:#ffffff; stroke:none;" d="M0 335L0 537L171 537L171 536C153.092 535.219 138.582 524.777 122 520C129.695 490.258 132.917 458.566 130.075 428C129.04 416.867 128.057 401.638 122 392C104.872 417.179 81.9573 452.074 54 466C50.5574 454.05 44.1954 443.362 41.4252 431C33.239 394.469 36.0811 360.679 39 324L0 335z"/>
<path style="fill:#06020a; stroke:none;" d="M31.6667 325.333L32.3333 325.667L31.6667 325.333z"/>
<path style="fill:#000001; stroke:none;" d="M361.333 327.667L361.667 328.333L361.333 327.667z"/>
<path style="fill:#08030c; stroke:none;" d="M21.6667 328.333L22.3333 328.667L21.6667 328.333z"/>
<path style="fill:#0b0411; stroke:none;" d="M11.6667 331.333L12.3333 331.667L11.6667 331.333z"/>
<path style="fill:#050108; stroke:none;" d="M8.66667 332.333L9.33333 332.667L8.66667 332.333z"/>
<path style="fill:#010002; stroke:none;" d="M364.333 332.667L364.667 333.333L364.333 332.667z"/>
<path style="fill:#0a0410; stroke:none;" d="M1.66667 334.333L2.33333 334.667L1.66667 334.333z"/>
<path style="fill:#000000; stroke:none;" d="M365.333 334.667L365.667 335.333L365.333 334.667z"/>
<path style="fill:#020004; stroke:none;" d="M366.333 336.667L366.667 337.333L366.333 336.667z"/>
<path style="fill:#0a030f; stroke:none;" d="M367.333 338.667L367.667 339.333L367.333 338.667z"/>
<path style="fill:#010001; stroke:none;" d="M306.667 341.333L307.333 341.667L306.667 341.333z"/>
<path style="fill:#060209; stroke:none;" d="M368.333 341.667L368.667 342.333L368.333 341.667z"/>
<path style="fill:#3d195b; stroke:none;" d="M655 414L740 414C740 391.354 740.052 370.273 720.999 354.326C686.862 325.751 629.589 344.699 621.616 389C613.646 433.284 645.63 467.976 690 464.946C702.332 464.104 716.209 458.995 725.999 451.497C728.875 449.294 734.987 445.357 733.694 440.996C732.219 436.025 719.521 422.89 714 423.661C708.483 424.432 703.279 430.444 698 432.535C680.724 439.378 660.597 433.386 655 414z"/>
<path style="fill:#010001; stroke:none;" d="M689 341L689 342L693 342L689 341z"/>
<path style="fill:#3d195b; stroke:none;" d="M1192 414L1278 414C1278 390.625 1276.47 369.328 1257 353.329C1221.28 323.971 1165.34 347.816 1158.44 392C1151.95 433.558 1184.5 469.798 1227 464.715C1239.58 463.21 1252.61 459.386 1263 451.84C1266.09 449.596 1272.41 445.607 1270.82 441C1269.25 436.436 1257.01 423.317 1252 423.192C1247 423.068 1239.91 430.613 1235 432.536C1216.95 439.607 1198.66 433.224 1192 414z"/>
<path style="fill:#030004; stroke:none;" d="M304.667 342.333L305.333 342.667L304.667 342.333z"/>
<path style="fill:#000000; stroke:none;" d="M694 342L694 343L698 343L694 342z"/>
<path style="fill:#210c31; stroke:none;" d="M802 342L802 343L819 343L802 342M943 342L943 343L958 343L943 342z"/>
<path style="fill:#020003; stroke:none;" d="M1231 342L1231 343L1235 343L1231 342z"/>
<path style="fill:#030105; stroke:none;" d="M699.667 343.333L700.333 343.667L699.667 343.333z"/>
<path style="fill:#3d195b; stroke:none;" d="M846 447L847 447L849 462L878 462L878 344L849 344L847 359C835.8 347.533 827.227 343 811 343C798.686 343 788.482 344.701 778 351.749C742.229 375.801 743.952 430.381 778.039 455.096C796.866 468.746 833.657 470.791 846 447M983 451L984 451C984 456.43 984.465 461.836 982.525 467C970.729 498.391 933.456 489.289 914 472L913 472C908.979 477.07 896.163 490.382 896.792 497.004C897.581 505.298 912.369 511.596 919 514.188C943.168 523.637 976.377 521.496 997.001 504.66C1014.69 490.218 1016 468.179 1016 447L1016 344C1010.05 344 991.169 340.926 987.14 345.603C984.381 348.806 984.944 355.046 984 359C966.389 333.488 926.444 340.192 907.039 360.015C882.286 385.302 886.106 431.738 914 453.32C930.234 465.881 970.755 473.523 983 451z"/>
<path style="fill:#000000; stroke:none;" d="M959 343L959 344L963 344L959 343z"/>
<path style="fill:#0a040f; stroke:none;" d="M1236.67 343.333L1237.33 343.667L1236.67 343.333z"/>
<path style="fill:#040106; stroke:none;" d="M300.667 344.333L301.333 344.667L300.667 344.333z"/>
<path style="fill:#0f0516; stroke:none;" d="M369 344L369 348L370 348L369 344z"/>
<path style="fill:#020004; stroke:none;" d="M702.667 344.333L703.333 344.667L702.667 344.333z"/>
<path style="fill:#13071d; stroke:none;" d="M878 344L878 462L879 462L879 380L878 344z"/>
<path style="fill:#0e0515; stroke:none;" d="M1031 344L1031 413L1032 413L1032 366L1031 344z"/>
<path style="fill:#3d195b; stroke:none;" d="M1032 344C1032 373.846 1024.3 416.618 1041.13 443C1061.76 475.326 1123.22 471.974 1140 437.715C1152.87 411.428 1146 372.673 1146 344L1114 344C1114 366.183 1119.88 398.465 1110.48 419C1103.28 434.719 1081.93 438.701 1070.79 424.826C1063.6 415.87 1064 404.78 1064 394L1064 344L1032 344z"/>
<path style="fill:#0a040f; stroke:none;" d="M1064 344L1064 412L1065 412L1065 365L1064 344z"/>
<path style="fill:#240e35; stroke:none;" d="M1146 344L1146 417L1147 417L1147 367L1146 344z"/>
<path style="fill:#09030e; stroke:none;" d="M1239.67 344.333L1240.33 344.667L1239.67 344.333z"/>
<path style="fill:#020004; stroke:none;" d="M298.667 345.333L299.333 345.667L298.667 345.333z"/>
<path style="fill:#07020a; stroke:none;" d="M966.667 345.333L967.333 345.667L966.667 345.333z"/>
<path style="fill:#000001; stroke:none;" d="M1242.67 345.333L1243.33 345.667L1242.67 345.333z"/>
<path style="fill:#000000; stroke:none;" d="M296.667 346.333L297.333 346.667L296.667 346.333M707.667 346.333L708.333 346.667L707.667 346.333z"/>
<path style="fill:#000001; stroke:none;" d="M831.667 346.333L832.333 346.667L831.667 346.333z"/>
<path style="fill:#030105; stroke:none;" d="M1244.67 346.333L1245.33 346.667L1244.67 346.333z"/>
<path style="fill:#040106; stroke:none;" d="M293.667 347.333L294.333 347.667L293.667 347.333z"/>
<path style="fill:#000000; stroke:none;" d="M833.667 347.333L834.333 347.667L833.667 347.333z"/>
<path style="fill:#000001; stroke:none;" d="M1248.67 348.333L1249.33 348.667L1248.67 348.333z"/>
<path style="fill:#11071a; stroke:none;" d="M284 352L285 352L288 350C285.588 348.645 284.568 349.351 284 352z"/>
<path style="fill:#000000; stroke:none;" d="M975.667 350.333L976.333 350.667L975.667 350.333z"/>
<path style="fill:#1f0d30; stroke:none;" d="M35 352L35 389L36 389C36 378.351 39.1113 361.798 35 352z"/>
<path style="fill:#1d0b2b; stroke:none;" d="M984 354L982 356L983 359L984 359L984 354z"/>
<path style="fill:#1a0a27; stroke:none;" d="M846 356L845 359L846 356z"/>
<path style="fill:#020004; stroke:none;" d="M431 366L431 371L432 371L431 366z"/>
<path style="fill:#030105; stroke:none;" d="M673 370L673 371L677 371L673 370z"/>
<path style="fill:#ffffff; stroke:none;" d="M655 390L708 390C700.682 364.597 661.447 363.107 655 390z"/>
<path style="fill:#000000; stroke:none;" d="M1211 370L1211 371L1215 371L1211 370z"/>
<path style="fill:#ffffff; stroke:none;" d="M1193 390L1245 390C1240.44 364.46 1195.78 363.024 1193 390z"/>
<path style="fill:#010002; stroke:none;" d="M671.667 371.333L672.333 371.667L671.667 371.333z"/>
<path style="fill:#06020a; stroke:none;" d="M1208.67 371.333L1209.33 371.667L1208.67 371.333z"/>
<path style="fill:#050208; stroke:none;" d="M668.667 372.333L669.333 372.667L668.667 372.333z"/>
<path style="fill:#160821; stroke:none;" d="M809 372L809 373L813 373L809 372z"/>
<path style="fill:#ffffff; stroke:none;" d="M813 372.44C773.693 378.44 781.621 438.377 821 432.7C858.475 427.297 850.606 366.699 813 372.44z"/>
<path style="fill:#010002; stroke:none;" d="M948 372L948 373L952 373L948 372z"/>
<path style="fill:#ffffff; stroke:none;" d="M952 372.443C912.167 378.242 920.171 438.582 960 432.699C997.403 427.175 989.464 366.989 952 372.443z"/>
<path style="fill:#040106; stroke:none;" d="M806.667 373.333L807.333 373.667L806.667 373.333z"/>
<path style="fill:#060209; stroke:none;" d="M803.667 374.333L804.333 374.667L803.667 374.333z"/>
<path style="fill:#010003; stroke:none;" d="M942.667 374.333L943.333 374.667L942.667 374.333z"/>
<path style="fill:#000000; stroke:none;" d="M1202.67 374.333L1203.33 374.667L1202.67 374.333z"/>
<path style="fill:#08030d; stroke:none;" d="M430 375L430 378L431 378L430 375z"/>
<path style="fill:#030004; stroke:none;" d="M801.667 375.333L802.333 375.667L801.667 375.333z"/>
<path style="fill:#000000; stroke:none;" d="M940.667 375.333L941.333 375.667L940.667 375.333z"/>
<path style="fill:#040107; stroke:none;" d="M429 379L429 383L430 383L429 379z"/>
<path style="fill:#000000; stroke:none;" d="M705.333 382.667L705.667 383.333L705.333 382.667M1243.33 383.667L1243.67 384.333L1243.33 383.667M706.333 384.667L706.667 385.333L706.333 384.667M791.333 384.667L791.667 385.333L791.333 384.667M929.333 385.667L929.667 386.333L929.333 385.667z"/>
<path style="fill:#030004; stroke:none;" d="M1244.33 385.667L1244.67 386.333L1244.33 385.667z"/>
<path style="fill:#040107; stroke:none;" d="M655.333 386.667L655.667 387.333L655.333 386.667M707.333 386.667L707.667 387.333L707.333 386.667z"/>
<path style="fill:#020004; stroke:none;" d="M843.333 388.667L843.667 389.333L843.333 388.667z"/>
<path style="fill:#000000; stroke:none;" d="M427 389L427 393L428 393L427 389z"/>
<path style="fill:#190b26; stroke:none;" d="M1277 389L1277 394L1278 394L1277 389z"/>
<path style="fill:#0c0412; stroke:none;" d="M844.333 390.667L844.667 391.333L844.333 390.667z"/>
<path style="fill:#030105; stroke:none;" d="M926.333 391.667L926.667 392.333L926.333 391.667z"/>
<path style="fill:#010001; stroke:none;" d="M983.333 391.667L983.667 392.333L983.333 391.667z"/>
<path style="fill:#261038; stroke:none;" d="M740 392L740 413L741 413L740 392z"/>
<path style="fill:#08030c; stroke:none;" d="M787.333 392.667L787.667 393.333L787.333 392.667z"/>
<path style="fill:#15081f; stroke:none;" d="M36 393L36 401L37 401L36 393z"/>
<path style="fill:#000000; stroke:none;" d="M120.333 393.667L120.667 394.333L120.333 393.667z"/>
<path style="fill:#000001; stroke:none;" d="M123.333 393.667L123.667 394.333L123.333 393.667z"/>
<path style="fill:#000000; stroke:none;" d="M925 393L925 397L926 397L925 393z"/>
<path style="fill:#010002; stroke:none;" d="M426.333 395.667L426.667 396.333L426.333 395.667z"/>
<path style="fill:#08030d; stroke:none;" d="M786 395L786 400L787 400L786 395z"/>
<path style="fill:#000000; stroke:none;" d="M118.333 396.667L118.667 397.333L118.333 396.667z"/>
<path style="fill:#150821; stroke:none;" d="M620 396L620 411L621 411L620 396z"/>
<path style="fill:#110619; stroke:none;" d="M751 396L751 410L752 410L751 396z"/>
<path style="fill:#160922; stroke:none;" d="M890 396L890 410L891 410L890 396z"/>
<path style="fill:#000000; stroke:none;" d="M425 397L425 401L426 401L425 397z"/>
<path style="fill:#1b0c29; stroke:none;" d="M924 397L924 408L925 408L924 397z"/>
<path style="fill:#170923; stroke:none;" d="M985 397L985 407L986 407L985 397z"/>
<path style="fill:#040107; stroke:none;" d="M400 398L400 401L401 401L402 398L400 398z"/>
<path style="fill:#040106; stroke:none;" d="M1278 398L1278 407L1279 407L1278 398z"/>
<path style="fill:#0f0617; stroke:none;" d="M846 399L846 407L847 407L846 399z"/>
<path style="fill:#000000; stroke:none;" d="M113.333 403.667L113.667 404.333L113.333 403.667z"/>
<path style="fill:#010003; stroke:none;" d="M37 405L37 410L38 410L37 405z"/>
<path style="fill:#010002; stroke:none;" d="M127 407L127 411L128 411L127 407z"/>
<path style="fill:#0b0411; stroke:none;" d="M398 409L398 414L399 414L398 409z"/>
<path style="fill:#09030e; stroke:none;" d="M845 409L845 412L846 412L845 409z"/>
<path style="fill:#0f0617; stroke:none;" d="M38 411L38 417L39 417L38 411z"/>
<path style="fill:#000000; stroke:none;" d="M1158 411L1158 416L1159 416L1158 411z"/>
<path style="fill:#1a0b27; stroke:none;" d="M128 412L128 416L129 416L128 412z"/>
<path style="fill:#040106; stroke:none;" d="M421.333 412.667L421.667 413.333L421.333 412.667z"/>
<path style="fill:#0b0411; stroke:none;" d="M891 414L891 417L892 417L891 414z"/>
<path style="fill:#000000; stroke:none;" d="M104.333 415.667L104.667 416.333L104.333 415.667z"/>
<path style="fill:#040107; stroke:none;" d="M420.333 415.667L420.667 416.333L420.333 415.667z"/>
<path style="fill:#0a0410; stroke:none;" d="M621 415L621 418L622 418L621 415z"/>
<path style="fill:#1a0a27; stroke:none;" d="M1032 415L1032 421L1033 421L1032 415z"/>
<path style="fill:#110619; stroke:none;" d="M129 417L129 423L130 423L129 417z"/>
<path style="fill:#010001; stroke:none;" d="M892 417L892 421L893 421L892 417z"/>
<path style="fill:#040106; stroke:none;" d="M39.3333 420.667L39.6667 421.333L39.3333 420.667z"/>
<path style="fill:#010002; stroke:none;" d="M622.333 420.667L622.667 421.333L622.333 420.667z"/>
<path style="fill:#060209; stroke:none;" d="M754.333 421.667L754.667 422.333L754.333 421.667z"/>
<path style="fill:#020004; stroke:none;" d="M1145.33 421.667L1145.67 422.333L1145.33 421.667z"/>
<path style="fill:#0a040f; stroke:none;" d="M714.667 422.333L715.333 422.667L714.667 422.333z"/>
<path style="fill:#030105; stroke:none;" d="M893.333 422.667L893.667 423.333L893.333 422.667z"/>
<path style="fill:#020003; stroke:none;" d="M1033 422L1033 426L1034 426L1033 422z"/>
<path style="fill:#000000; stroke:none;" d="M130 423L130 432L131 432L130 423z"/>
<path style="fill:#040107; stroke:none;" d="M623.333 423.667L623.667 424.333L623.333 423.667z"/>
<path style="fill:#000000; stroke:none;" d="M395 424L395 428L396 428L395 424z"/>
<path style="fill:#030105; stroke:none;" d="M755.333 424.667L755.667 425.333L755.333 424.667z"/>
<path style="fill:#020004; stroke:none;" d="M894.333 425.667L894.667 426.333L894.333 425.667z"/>
<path style="fill:#010002; stroke:none;" d="M1161.33 425.667L1161.67 426.333L1161.33 425.667z"/>
<path style="fill:#010003; stroke:none;" d="M624.333 426.667L624.667 427.333L624.333 426.667z"/>
<path style="fill:#09030e; stroke:none;" d="M1034.33 427.667L1034.67 428.333L1034.33 427.667z"/>
<path style="fill:#0a0410; stroke:none;" d="M1162.33 427.667L1162.67 428.333L1162.33 427.667z"/>
<path style="fill:#000001; stroke:none;" d="M41 428L41 432L42 432L41 428z"/>
<path style="fill:#06020a; stroke:none;" d="M1143.33 428.667L1143.67 429.333L1143.33 428.667z"/>
<path style="fill:#29113d; stroke:none;" d="M613 429L613 461L504 461L504 462L614 462L613 429z"/>
<path style="fill:#000000; stroke:none;" d="M757.333 429.667L757.667 430.333L757.333 429.667M665.667 430.333L666.333 430.667L665.667 430.333z"/>
<path style="fill:#07020a; stroke:none;" d="M1035.33 430.667L1035.67 431.333L1035.33 430.667z"/>
<path style="fill:#000000; stroke:none;" d="M1163.33 430.667L1163.67 431.333L1163.33 430.667M758.333 431.667L758.667 432.333L758.333 431.667z"/>
<path style="fill:#010003; stroke:none;" d="M805.667 431.333L806.333 431.667L805.667 431.333z"/>
<path style="fill:#000000; stroke:none;" d="M944.667 431.333L945.333 431.667L944.667 431.333z"/>
<path style="fill:#020003; stroke:none;" d="M1142.33 431.667L1142.67 432.333L1142.33 431.667z"/>
<path style="fill:#000000; stroke:none;" d="M1204.67 431.333L1205.33 431.667L1204.67 431.333z"/>
<path style="fill:#000001; stroke:none;" d="M42 432L42 436L43 436L42 432z"/>
<path style="fill:#0c0412; stroke:none;" d="M393 432L393 435L394 435L393 432z"/>
<path style="fill:#000000; stroke:none;" d="M897.333 432.667L897.667 433.333L897.333 432.667M1164.33 432.667L1164.67 433.333L1164.33 432.667M1206.67 432.333L1207.33 432.667L1206.67 432.333z"/>
<path style="fill:#010001; stroke:none;" d="M671.667 433.333L672.333 433.667L671.667 433.333z"/>
<path style="fill:#1d0c2a; stroke:none;" d="M811 433L811 434L821 434L811 433z"/>
<path style="fill:#1c0b2a; stroke:none;" d="M950 433L950 434L959 434L950 433z"/>
<path style="fill:#000000; stroke:none;" d="M1036.33 433.667L1036.67 434.333L1036.33 433.667z"/>
<path style="fill:#1c0c2b; stroke:none;" d="M1083 433L1083 434L1093 434L1083 433z"/>
<path style="fill:#09030d; stroke:none;" d="M1141.33 433.667L1141.67 434.333L1141.33 433.667z"/>
<path style="fill:#060209; stroke:none;" d="M1208.67 433.333L1209.33 433.667L1208.67 433.333z"/>
<path style="fill:#0b0410; stroke:none;" d="M1211 434L1211 435L1214 435L1211 434z"/>
<path style="fill:#0f0617; stroke:none;" d="M677 435L677 436L690 436L677 435z"/>
<path style="fill:#000001; stroke:none;" d="M1037.33 435.667L1037.67 436.333L1037.33 435.667z"/>
<path style="fill:#0f0617; stroke:none;" d="M1214 435L1214 436L1226 436L1214 435z"/>
<path style="fill:#000001; stroke:none;" d="M629.333 436.667L629.667 437.333L629.333 436.667z"/>
<path style="fill:#010001; stroke:none;" d="M761.333 436.667L761.667 437.333L761.333 436.667z"/>
<path style="fill:#000000; stroke:none;" d="M900.333 437.667L900.667 438.333L900.333 437.667M1038.33 437.667L1038.67 438.333L1038.33 437.667M1167.33 437.667L1167.67 438.333L1167.33 437.667z"/>
<path style="fill:#010001; stroke:none;" d="M391.333 439.667L391.667 440.333L391.333 439.667z"/>
<path style="fill:#010002; stroke:none;" d="M1138.33 439.667L1138.67 440.333L1138.33 439.667z"/>
<path style="fill:#0c0413; stroke:none;" d="M131 440L131 461L132 461L131 440z"/>
<path style="fill:#08030d; stroke:none;" d="M389.333 444.667L389.667 445.333L389.333 444.667z"/>
<path style="fill:#1f0d2e; stroke:none;" d="M768 446L774 451L768 446z"/>
<path style="fill:#020003; stroke:none;" d="M388.333 447.667L388.667 448.333L388.333 447.667z"/>
<path style="fill:#0f0617; stroke:none;" d="M846 447L847 450L846 447z"/>
<path style="fill:#07020b; stroke:none;" d="M47.3333 449.667L47.6667 450.333L47.3333 449.667M387.333 449.667L387.667 450.333L387.333 449.667z"/>
<path style="fill:#010002; stroke:none;" d="M983 451L983 466L984 466L983 451z"/>
<path style="fill:#010001; stroke:none;" d="M48.3333 452.667L48.6667 453.333L48.3333 452.667z"/>
<path style="fill:#000000; stroke:none;" d="M386.333 452.667L386.667 453.333L386.333 452.667z"/>
<path style="fill:#190924; stroke:none;" d="M643 452L646 454L643 452z"/>
<path style="fill:#040106; stroke:none;" d="M49.3333 454.667L49.6667 455.333L49.3333 454.667z"/>
<path style="fill:#020004; stroke:none;" d="M385.333 454.667L385.667 455.333L385.333 454.667z"/>
<path style="fill:#000000; stroke:none;" d="M1254.67 456.333L1255.33 456.667L1254.67 456.333M835.667 457.333L836.333 457.667L835.667 457.333M1119.67 457.333L1120.33 457.667L1119.67 457.333z"/>
<path style="fill:#000001; stroke:none;" d="M1252.67 457.333L1253.33 457.667L1252.67 457.333z"/>
<path style="fill:#020004; stroke:none;" d="M1117.67 458.333L1118.33 458.667L1117.67 458.333z"/>
<path style="fill:#000000; stroke:none;" d="M1250.67 458.333L1251.33 458.667L1250.67 458.333z"/>
<path style="fill:#050209; stroke:none;" d="M710.667 459.333L711.333 459.667L710.667 459.333z"/>
<path style="fill:#010003; stroke:none;" d="M972.667 459.333L973.333 459.667L972.667 459.333z"/>
<path style="fill:#000000; stroke:none;" d="M1115.67 459.333L1116.33 459.667L1115.67 459.333M1248.67 459.333L1249.33 459.667L1248.67 459.333M708.667 460.333L709.333 460.667L708.667 460.333z"/>
<path style="fill:#020004; stroke:none;" d="M970.667 460.333L971.333 460.667L970.667 460.333z"/>
<path style="fill:#040107; stroke:none;" d="M1245.67 460.333L1246.33 460.667L1245.67 460.333z"/>
<path style="fill:#06020a; stroke:none;" d="M827.667 461.333L828.333 461.667L827.667 461.333z"/>
<path style="fill:#010001; stroke:none;" d="M968.667 461.333L969.333 461.667L968.667 461.333z"/>
<path style="fill:#000000; stroke:none;" d="M1110.67 461.333L1111.33 461.667L1110.67 461.333z"/>
<path style="fill:#07020b; stroke:none;" d="M1242.67 461.333L1243.33 461.667L1242.67 461.333z"/>
<path style="fill:#000000; stroke:none;" d="M702.667 462.333L703.333 462.667L702.667 462.333z"/>
<path style="fill:#050208; stroke:none;" d="M965.667 462.333L966.333 462.667L965.667 462.333z"/>
<path style="fill:#000000; stroke:none;" d="M1105 462L1105 463L1109 463L1105 462z"/>
<path style="fill:#0c0412; stroke:none;" d="M695 463L695 464L700 464L695 463z"/>
<path style="fill:#030004; stroke:none;" d="M960 463L960 464L964 464L960 463z"/>
<path style="fill:#010002; stroke:none;" d="M1103.67 463.333L1104.33 463.667L1103.67 463.333z"/>
<path style="fill:#030105; stroke:none;" d="M1235.67 463.333L1236.33 463.667L1235.67 463.333z"/>
<path style="fill:#000001; stroke:none;" d="M54 464L54 466L56 466L54 464z"/>
<path style="fill:#0d0514; stroke:none;" d="M1015 464L1015 470L1016 470L1015 464z"/>
<path style="fill:#000000; stroke:none;" d="M1228 464L1228 465L1232 465L1228 464z"/>
<path style="fill:#020004; stroke:none;" d="M379.333 466.667L379.667 467.333L379.333 466.667z"/>
<path style="fill:#160821; stroke:none;" d="M130 467L130 475L131 475L130 467z"/>
<path style="fill:#000000; stroke:none;" d="M378.333 468.667L378.667 469.333L378.333 468.667z"/>
<path style="fill:#010002; stroke:none;" d="M375.333 473.667L375.667 474.333L375.333 473.667z"/>
<path style="fill:#0c0412; stroke:none;" d="M1014 473L1014 476L1015 476L1014 473z"/>
<path style="fill:#000000; stroke:none;" d="M1013 476L1013 480L1014 480L1013 476z"/>
<path style="fill:#160821; stroke:none;" d="M129 477L129 482L130 482L129 477z"/>
<path style="fill:#000000; stroke:none;" d="M920.667 478.333L921.333 478.667L920.667 478.333M923.667 480.333L924.333 480.667L923.667 480.333z"/>
<path style="fill:#09030e; stroke:none;" d="M1011.33 483.667L1011.67 484.333L1011.33 483.667z"/>
<path style="fill:#000000; stroke:none;" d="M367.333 485.667L367.667 486.333L367.333 485.667z"/>
<path style="fill:#050108; stroke:none;" d="M933.667 485.333L934.333 485.667L933.667 485.333z"/>
<path style="fill:#0a030f; stroke:none;" d="M936.667 486.333L937.333 486.667L936.667 486.333z"/>
<path style="fill:#060209; stroke:none;" d="M939 487L939 488L943 488L939 487z"/>
<path style="fill:#1a0b29; stroke:none;" d="M901 488L900 491L901 488z"/>
<path style="fill:#000000; stroke:none;" d="M364.333 489.667L364.667 490.333L364.333 489.667M360.333 494.667L360.667 495.333L360.333 494.667z"/>
<path style="fill:#15081f; stroke:none;" d="M895 496L898 500L895 496z"/>
<path style="fill:#000000; stroke:none;" d="M990.667 508.333L991.333 508.667L990.667 508.333M295.667 511.333L296.333 511.667L295.667 511.333M985.667 511.333L986.333 511.667L985.667 511.333z"/>
<path style="fill:#060209; stroke:none;" d="M978.667 514.333L979.333 514.667L978.667 514.333z"/>
<path style="fill:#000000; stroke:none;" d="M288.667 515.333L289.333 515.667L288.667 515.333M286.667 516.333L287.333 516.667L286.667 516.333M310 516L310 520L311 520L310 516z"/>
<path style="fill:#0c0413; stroke:none;" d="M972 516L972 517L975 517L972 516z"/>
<path style="fill:#000001; stroke:none;" d="M284.667 517.333L285.333 517.667L284.667 517.333M122.333 518.667L122.667 519.333L122.333 518.667z"/>
<path style="fill:#010002; stroke:none;" d="M282.667 518.333L283.333 518.667L282.667 518.333z"/>
<path style="fill:#0c0413; stroke:none;" d="M964 518L964 519L967 519L964 518z"/>
<path style="fill:#000000; stroke:none;" d="M280.667 519.333L281.333 519.667L280.667 519.333z"/>
<path style="fill:#1b0c29; stroke:none;" d="M941 519L941 520L960 520L941 519z"/>
<path style="fill:#000000; stroke:none;" d="M278.667 520.333L279.333 520.667L278.667 520.333z"/>
<path style="fill:#060209; stroke:none;" d="M273.667 522.333L274.333 522.667L273.667 522.333z"/>
<path style="fill:#000000; stroke:none;" d="M331.667 522.333L332.333 522.667L331.667 522.333z"/>
<path style="fill:#010002; stroke:none;" d="M271.667 523.333L272.333 523.667L271.667 523.333z"/>
<path style="fill:#0b0410; stroke:none;" d="M268.667 524.333L269.333 524.667L268.667 524.333z"/>
<path style="fill:#010002; stroke:none;" d="M266.667 525.333L267.333 525.667L266.667 525.333z"/>
<path style="fill:#000000; stroke:none;" d="M327.667 525.333L328.333 525.667L327.667 525.333z"/>
<path style="fill:#07020a; stroke:none;" d="M263.667 526.333L264.333 526.667L263.667 526.333z"/>
<path style="fill:#0b0411; stroke:none;" d="M260.667 527.333L261.333 527.667L260.667 527.333z"/>
<path style="fill:#000000; stroke:none;" d="M323.667 528.333L324.333 528.667L323.667 528.333z"/>
<path style="fill:#09030d; stroke:none;" d="M251.667 530.333L252.333 530.667L251.667 530.333z"/>
<path style="fill:#010003; stroke:none;" d="M314 532L316 535L314 532z"/>
<path style="fill:#020003; stroke:none;" d="M234 534L234 535L238 535L234 534z"/>
<path style="fill:#020004; stroke:none;" d="M231.667 535.333L232.333 535.667L231.667 535.333z"/>
</svg>
